<svg id="Layer_1" data-name="Layer 1" xmlns="http://www.w3.org/2000/svg" viewBox="0 0 258.7 81.51"><defs><style>.cls-1{font-size:72px;fill:#008ebc;font-family:Cambria-Bold, Cambria;font-weight:700;}.cls-2{fill:none;stroke:#231f20;stroke-miterlimit:10;stroke-width:2px;}.cls-3{fill:#058fbc;}.cls-4{fill:#e89f2b;}.cls-5{fill:#d68a28;}.cls-6{fill:#cdcccb;}.cls-7{fill:#ababab;}.cls-8{fill:#b3b3b3;}.cls-9{fill:#8d9091;}.cls-10{fill:#3e4141;}.cls-11{fill:#343433;}.cls-12{fill:#1d1f1e;}.cls-13{fill:#2e2f2f;}</style></defs><text class="cls-1" transform="translate(101.48 59.99)">DITI</text><polygon class="cls-2" points="257.7 71.42 57.35 71.42 1 71.42 1 2.55 257.7 2.55 257.7 71.42"/><line class="cls-2" x1="90.17" y1="3.55" x2="90.17" y2="72.42"/><path class="cls-3" d="M339.56,270.5c0-14.95,13.8-27.07,30.82-27.07s30.82,12.12,30.82,27.07-13.8,27.07-30.82,27.07S339.56,285.45,339.56,270.5Z" transform="translate(-325.39 -232.89)"/><path class="cls-4" d="M376.46,274l10-8.79c2.58-2.26,0-3.66-2.59-5.93l-34.94,30.69a31.24,31.24,0,0,0,4.59,3.23l17.08-18A6,6,0,0,0,376.46,274Z" transform="translate(-325.39 -232.89)"/><path class="cls-5" d="M348.93,289.93l34.94-30.69c-2.58-2.26-4.17-4.54-6.75-2.27l-10,8.78a4.45,4.45,0,0,0-1.36,5.16l-20.69,15A28,28,0,0,0,348.93,289.93Z" transform="translate(-325.39 -232.89)"/><path class="cls-6" d="M384.22,258.94c-2.58-2.27-4.52-4.24-7.1-2l-10,8.78c-1.22,1.07,8.13,9.28,9.34,8.21l10-8.79C389,262.91,386.8,261.21,384.22,258.94Z" transform="translate(-325.39 -232.89)"/><path class="cls-7" d="M384.22,258.94c-2.58-2.27-4.52-4.24-7.1-2l-10,8.78c-.61.53,1.42,2.85,3.76,4.91Z" transform="translate(-325.39 -232.89)"/><path class="cls-8" d="M367.75,273.54a8.5,8.5,0,0,1-2.32-3.41l-5.35,4.8c-.66.58,5.3,5.77,6,5.19l5.4-4.74A8.37,8.37,0,0,1,367.75,273.54Z" transform="translate(-325.39 -232.89)"/><path class="cls-9" d="M367.66,273.46a8.55,8.55,0,0,1-2.23-3.33l-5.35,4.8c-.33.29.91,1.7,2.46,3.06Z" transform="translate(-325.39 -232.89)"/><path class="cls-10" d="M379.63,251.9l-8.36,10.21c-1.22,1.07,8.12,9.28,9.34,8.21L392.24,263C394.82,260.7,382.21,249.63,379.63,251.9Z" transform="translate(-325.39 -232.89)"/><path class="cls-11" d="M379.63,251.9l-8.36,10.21c-.6.53,1.35,2.78,3.64,4.8l13-11.18C384.72,253,380.92,250.76,379.63,251.9Z" transform="translate(-325.39 -232.89)"/><path class="cls-12" d="M373.74,263.61a.5.5,0,0,1-.29-.09.39.39,0,0,1-.09-.59l8.34-9.56a.55.55,0,0,1,.68-.08.4.4,0,0,1,.09.6l-8.35,9.56A.48.48,0,0,1,373.74,263.61Z" transform="translate(-325.39 -232.89)"/><path class="cls-13" d="M379.55,268.72a.52.52,0,0,1-.38-.17.39.39,0,0,1,.09-.59l10.88-7.33a.53.53,0,0,1,.68.07.4.4,0,0,1-.09.6l-10.88,7.33A.53.53,0,0,1,379.55,268.72Z" transform="translate(-325.39 -232.89)"/><path class="cls-13" d="M377.6,267a.52.52,0,0,1-.36-.14.39.39,0,0,1,0-.6l10.53-8.44a.53.53,0,0,1,.69,0,.39.39,0,0,1,0,.6l-10.54,8.44A.54.54,0,0,1,377.6,267Z" transform="translate(-325.39 -232.89)"/><path class="cls-12" d="M375.58,265.23a.54.54,0,0,1-.32-.11.39.39,0,0,1,0-.6l9.61-9.25a.52.52,0,0,1,.68,0,.39.39,0,0,1,0,.6l-9.61,9.25A.54.54,0,0,1,375.58,265.23Z" transform="translate(-325.39 -232.89)"/></svg>